<svg width="24" height="24" viewBox="0 0 24 24" fill="none" xmlns="http://www.w3.org/2000/svg">
<rect width="24" height="24" rx="6" fill="url(#paint0_linear_443_3102)"/>
<path d="M13.4231 13.9175C13.3998 13.7073 13.3297 13.5554 13.1895 13.4153C12.9267 13.1408 12.4654 12.9597 11.9222 12.9597C11.3791 12.9597 10.9178 13.1349 10.655 13.4153C10.5206 13.5613 10.4447 13.7073 10.4214 13.9175C10.3746 14.3263 10.4038 14.6767 10.4506 15.2432C10.4973 15.7805 10.5849 16.4988 10.6958 17.2229C10.7776 17.7427 10.8418 18.023 10.9002 18.2216C10.9995 18.5486 11.3558 18.8289 11.9222 18.8289C12.4887 18.8289 12.8508 18.5428 12.9442 18.2216C13.0026 18.023 13.0669 17.7427 13.1486 17.2229C13.2596 16.4929 13.3472 15.7805 13.3939 15.2432C13.4465 14.6767 13.4698 14.3263 13.4231 13.9175Z" fill="white"/>
<path d="M13.358 10.9389C13.358 11.7332 12.7156 12.3756 11.9214 12.3756C11.1271 12.3756 10.4847 11.7332 10.4847 10.9389C10.4847 10.1447 11.1271 9.50229 11.9214 9.50229C12.7156 9.50229 13.358 10.1505 13.358 10.9389Z" fill="white"/>
<path d="M11.9047 5.27999C8.55249 5.29167 5.80769 8.01311 5.76097 11.3653C5.72593 14.0809 7.46041 16.4052 9.88401 17.2578C9.94241 17.2812 10.0008 17.2286 9.99497 17.1702C9.96577 16.96 9.93073 16.7498 9.90737 16.5395C9.89569 16.4636 9.84897 16.4052 9.78473 16.3702C7.86921 15.535 6.53185 13.6137 6.55521 11.3886C6.58441 8.46863 8.96713 6.09175 11.8813 6.06839C14.8655 6.04503 17.3008 8.46279 17.3008 11.4412C17.3008 13.6429 15.9693 15.535 14.0713 16.3702C14.0012 16.3994 13.9545 16.4636 13.9487 16.5395C13.9195 16.7498 13.8903 16.96 13.8611 17.1702C13.8494 17.2345 13.9136 17.2812 13.972 17.2578C16.3723 16.4169 18.0951 14.1276 18.0951 11.4412C18.0834 8.04231 15.3094 5.27415 11.9047 5.27999Z" fill="white"/>
<path d="M11.7637 7.32394C9.57952 7.4057 7.82752 9.21026 7.79832 11.3944C7.7808 12.8311 8.49912 14.1042 9.60288 14.8575C9.65544 14.8926 9.73136 14.8517 9.73136 14.7875C9.71384 14.5363 9.71384 14.3144 9.72552 14.0808C9.73136 14.0049 9.70216 13.9348 9.64376 13.8823C8.97216 13.2515 8.56336 12.3522 8.58672 11.3594C8.63344 9.60738 10.0409 8.18242 11.7929 8.11234C13.6967 8.03642 15.2618 9.5665 15.2618 11.447C15.2618 12.4047 14.853 13.2691 14.2048 13.8823C14.1522 13.9348 14.123 14.0049 14.123 14.0808C14.1347 14.3086 14.1289 14.5305 14.1172 14.7816C14.1114 14.8459 14.1873 14.8926 14.2457 14.8517C15.3319 14.11 16.0502 12.8544 16.0502 11.4411C16.0561 9.11682 14.1114 7.2305 11.7637 7.32394Z" fill="white"/>
<defs>
<linearGradient id="paint0_linear_443_3102" x1="12" y1="0" x2="12" y2="24" gradientUnits="userSpaceOnUse">
<stop stop-color="#F452FF"/>
<stop offset="1" stop-color="#832BC1"/>
</linearGradient>
</defs>
</svg>
