<svg width="24" height="24" viewBox="0 0 24 24" fill="none" xmlns="http://www.w3.org/2000/svg">
<rect width="24" height="24" rx="6" fill="#005CFF"/>
<path d="M10.8457 11.6391C10.8457 11.6391 11.9815 11.5528 11.9815 10.1937C11.9815 8.83575 11.2112 8.16635 10.0337 8.16635L6.00005 8.15997V15.6645H10.1275C10.1275 15.6645 12.1913 15.7298 12.1913 13.4131C12.1913 13.4131 12.3428 11.6391 10.8457 11.6391ZM7.50095 9.28564H9.56468C9.56468 9.28564 10.2709 9.29728 10.2709 10.2128C10.2709 11.1618 9.56468 11.1618 9.56468 11.1618H7.50095V9.28564ZM9.7523 14.5388H7.50095V12.2874H9.7523C9.7523 12.2874 10.878 12.2991 10.878 13.4131C10.878 14.5272 9.91439 14.5388 9.7523 14.5388Z" fill="white"/>
<path d="M15.3808 10.0363C12.5617 10.0363 12.5666 12.8505 12.5666 12.8505C12.5666 12.8505 12.379 15.6646 15.3808 15.6646C15.3808 15.6646 18.0073 15.6646 18.0073 13.4133H16.5064C16.5064 13.4133 16.5064 14.539 15.3808 14.539C15.3808 14.539 14.2551 14.539 14.2551 13.0381C14.2551 13.0381 17.2569 13.0381 18.0073 13.0381C18.0073 12.2876 18.0073 10.0363 15.3808 10.0363ZM14.2551 12.2876C14.2551 12.2876 14.2303 11.1619 15.3808 11.1619C16.5308 11.1619 16.5064 12.2876 16.5064 12.2876H14.2551Z" fill="white"/>
<path d="M16.8818 8.91049H13.88V9.66094H16.8818V8.91049Z" fill="white"/>
</svg>
