<svg width="24" height="24" viewBox="0 0 24 24" fill="none" xmlns="http://www.w3.org/2000/svg">
<rect width="24" height="24" rx="6" fill="#5865F2"/>
<path d="M16.3763 8.01079C17.7905 10.1029 18.4889 12.4627 18.2278 15.1794C18.2267 15.1909 18.2208 15.2015 18.2114 15.2084C17.1405 15.9996 16.1029 16.4798 15.0799 16.7983C15.0719 16.8007 15.0634 16.8005 15.0555 16.7979C15.0476 16.7952 15.0407 16.7901 15.0359 16.7833C14.7995 16.4524 14.5848 16.1036 14.3966 15.7372C14.3858 15.7157 14.3957 15.6897 14.4179 15.6812C14.759 15.5519 15.0833 15.3969 15.3953 15.2134C15.4198 15.1989 15.4214 15.1635 15.3987 15.1465C15.3325 15.097 15.2669 15.0451 15.2041 14.9931C15.1924 14.9835 15.1766 14.9816 15.1633 14.9881C13.1381 15.9291 10.9195 15.9291 8.87034 14.9881C8.85704 14.9821 8.84123 14.9841 8.8298 14.9936C8.7672 15.0455 8.70146 15.097 8.63587 15.1465C8.61318 15.1635 8.61506 15.1989 8.63979 15.2134C8.95173 15.3934 9.27605 15.5519 9.61664 15.6818C9.63871 15.6903 9.64919 15.7157 9.63824 15.7372C9.45417 16.104 9.23942 16.4529 8.99869 16.7838C8.9882 16.7971 8.97099 16.8033 8.95471 16.7983C7.93654 16.4798 6.89895 15.9996 5.82803 15.2084C5.81911 15.2015 5.8127 15.1904 5.81176 15.1789C5.59357 12.829 6.03824 10.4497 7.66153 8.01032C7.66544 8.00386 7.67139 7.99882 7.67828 7.99583C8.477 7.62699 9.33271 7.35563 10.2271 7.20066C10.2434 7.19814 10.2596 7.2057 10.2681 7.22019C10.3786 7.41706 10.5049 7.66951 10.5904 7.87582C11.5331 7.73093 12.4905 7.73093 13.453 7.87582C13.5384 7.67392 13.6604 7.41706 13.7704 7.22019C13.7743 7.21301 13.7804 7.20725 13.7878 7.20374C13.7951 7.20023 13.8034 7.19916 13.8114 7.20066C14.7062 7.35611 15.5619 7.62746 16.3601 7.99583C16.3671 7.99882 16.3729 8.00386 16.3763 8.01079ZM11.0696 12.4788C11.0795 11.7841 10.5761 11.2093 9.94424 11.2093C9.31753 11.2093 8.819 11.779 8.819 12.4788C8.819 13.1783 9.32739 13.7481 9.94424 13.7481C10.5711 13.7481 11.0696 13.1783 11.0696 12.4788ZM15.2303 12.4788C15.2401 11.7841 14.7368 11.2093 14.105 11.2093C13.4782 11.2093 12.9797 11.779 12.9797 12.4788C12.9797 13.1783 13.488 13.7481 14.105 13.7481C14.7368 13.7481 15.2303 13.1783 15.2303 12.4788Z" fill="white"/>
</svg>
