<svg width="24" height="24" viewBox="0 0 24 24" fill="none" xmlns="http://www.w3.org/2000/svg">
<rect width="24" height="24" rx="6" fill="#E74D89"/>
<path d="M12.015 18.56C8.56499 18.56 5.76001 15.6379 5.76001 12.0426C5.76001 8.44214 8.56499 5.52 12.015 5.52C15.465 5.52 18.27 8.44214 18.27 12.0375C18.27 15.6328 15.465 18.56 12.015 18.56ZM17.2878 12.9299C17.107 12.8687 15.6361 12.4148 13.9599 12.6902C14.6587 14.6893 14.9422 16.3212 14.9959 16.6578C16.198 15.8163 17.0532 14.4802 17.2878 12.9299ZM14.1016 17.1729C14.0235 16.6833 13.7107 14.98 12.963 12.9503C12.9533 12.9554 12.9386 12.9605 12.9288 12.9605C9.91372 14.0569 8.83376 16.2345 8.73602 16.4385C9.64006 17.1729 10.7787 17.6115 12.015 17.6115C12.7529 17.6166 13.4615 17.4585 14.1016 17.1729ZM8.04699 15.7705C8.16916 15.5563 9.63518 13.0268 12.3913 12.0935C12.4597 12.068 12.533 12.0477 12.6014 12.0273C12.4695 11.7111 12.3229 11.3949 12.1665 11.0838C9.49835 11.9151 6.90839 11.8794 6.67383 11.8743C6.67383 11.9304 6.66894 11.9865 6.66894 12.0426C6.67383 13.4756 7.19182 14.7811 8.04699 15.7705ZM6.78622 10.9053C7.02567 10.9104 9.22469 10.9206 11.7267 10.227C10.8422 8.58494 9.8844 7.20801 9.74757 7.00912C8.24735 7.74348 7.13318 9.1816 6.78622 10.9053ZM10.764 6.63174C10.9106 6.83573 11.8831 8.21266 12.7578 9.89047C14.6587 9.14591 15.4601 8.02397 15.5579 7.88117C14.6147 7.00912 13.3735 6.47875 12.015 6.47875C11.585 6.47875 11.1647 6.53485 10.764 6.63174ZM16.1492 8.52374C16.0368 8.68183 15.1425 9.88027 13.1683 10.7217C13.2904 10.9869 13.4126 11.2572 13.525 11.5275C13.5641 11.6244 13.6032 11.7213 13.6423 11.8131C15.4211 11.5785 17.1852 11.9559 17.3611 11.9916C17.3464 10.6809 16.8968 9.47229 16.1492 8.52374Z" fill="white"/>
</svg>
