<svg width="24" height="24" viewBox="0 0 24 24" fill="none" xmlns="http://www.w3.org/2000/svg">
<rect width="24" height="24" rx="6" fill="white"/>
<path d="M12.8046 12.0577L14.1076 13.4775L15.8598 14.5449L16.1653 12.0664L15.8598 9.64326L14.074 10.5811L12.8046 12.0577Z" fill="#00832D"/>
<path d="M5.24246 14.3148V16.4263C5.24246 16.909 5.65263 17.3 6.15903 17.3H8.37406L8.83235 15.704L8.37406 14.3148L6.85409 13.8779L5.24246 14.3148Z" fill="#0066DA"/>
<path d="M8.37406 6.8152L5.24246 9.80048L6.85409 10.2373L8.37406 9.80048L8.82471 8.43016L8.37406 6.8152Z" fill="#E94235"/>
<path d="M8.37406 9.80048H5.24246L5.24246 14.3148H8.37406V9.80048Z" fill="#2684FC"/>
<path d="M17.8605 8.07929L15.8594 9.64329V14.545L17.8697 16.1162C18.1706 16.3405 18.6106 16.1359 18.6106 15.7711V8.41714C18.6106 8.04798 18.1607 7.84557 17.8605 8.07929ZM12.8041 12.0577V14.3149L8.37406 14.3148V17.3L14.9428 17.3002C15.4492 17.3002 15.8594 16.9092 15.8594 16.4264V14.545L12.8041 12.0577Z" fill="#00AC47"/>
<path d="M14.9428 6.8152H8.37406V9.80048L12.8041 9.80048L12.8041 12.0577L15.8594 9.64466V7.68894C15.8594 7.2062 15.4492 6.8152 14.9428 6.8152Z" fill="#FFBA00"/>
</svg>
