<svg width="24" height="24" viewBox="0 0 24 24" fill="none" xmlns="http://www.w3.org/2000/svg">
<rect width="24" height="24" rx="6" fill="black"/>
<path d="M12.8639 12.1201C12.8639 14.1731 11.1702 15.8401 9.07209 15.8401C6.97394 15.8401 5.28024 14.1731 5.28024 12.1201C5.28024 10.0671 6.97394 8.40007 9.07209 8.40007C11.1702 8.40007 12.8639 10.0671 12.8639 12.1201ZM17.0181 12.1201C17.0181 14.0499 16.1671 15.6184 15.1222 15.6184C14.0773 15.6184 13.2263 14.0499 13.2263 12.1201C13.2263 10.1903 14.0773 8.62179 15.1222 8.62179C16.1671 8.62179 17.0181 10.1821 17.0181 12.1201ZM18.7202 12.1201C18.7202 13.8528 18.4253 15.257 18.0546 15.257C17.6838 15.257 17.3889 13.8528 17.3889 12.1201C17.3889 10.3874 17.6838 8.98311 18.0546 8.98311C18.4253 8.98311 18.7202 10.3874 18.7202 12.1201Z" fill="white"/>
</svg>
