<svg width="24" height="24" viewBox="0 0 24 24" fill="none" xmlns="http://www.w3.org/2000/svg">
<rect width="24" height="24" rx="6" fill="url(#paint0_radial_443_3084)"/>
<path fill-rule="evenodd" clip-rule="evenodd" d="M6 11.8247C6 8.4785 8.62268 6 12.005 6C15.3873 6 18.01 8.48 18.01 11.8262C18.01 15.1724 15.3873 17.6509 12.005 17.6509C11.397 17.6509 10.8145 17.5698 10.2666 17.4197C10.16 17.3912 10.0459 17.3987 9.94529 17.4437L8.75329 17.9691C8.6813 18.0009 8.60261 18.0145 8.52414 18.0087C8.44567 18.0029 8.36982 17.978 8.30325 17.936C8.23669 17.8941 8.18145 17.8364 8.14238 17.7681C8.10332 17.6998 8.08164 17.6229 8.07923 17.5443L8.0462 16.4754C8.0432 16.3433 7.98315 16.2202 7.88557 16.1332C6.7176 15.0883 6 13.5751 6 11.8247ZM10.163 10.7303L8.39899 13.5286C8.22935 13.7973 8.55963 14.099 8.81184 13.9069L10.7064 12.4687C10.7688 12.4214 10.8448 12.3956 10.9231 12.3953C11.0014 12.3951 11.0776 12.4203 11.1403 12.4672L12.5439 13.5196C12.6435 13.5943 12.7575 13.6476 12.8787 13.6761C12.9999 13.7046 13.1257 13.7077 13.2481 13.6851C13.3706 13.6626 13.487 13.6148 13.5901 13.545C13.6932 13.4752 13.7807 13.3847 13.847 13.2794L15.6125 10.4826C15.7806 10.2139 15.4504 9.91065 15.1982 10.1028L13.3036 11.541C13.2412 11.5883 13.1652 11.6141 13.0869 11.6143C13.0086 11.6146 12.9324 11.5894 12.8697 11.5425L11.466 10.4901C11.3665 10.4153 11.2525 10.362 11.1313 10.3335C11.0101 10.305 10.8843 10.302 10.7618 10.3245C10.6394 10.3471 10.523 10.3948 10.4199 10.4647C10.3168 10.5345 10.2293 10.625 10.163 10.7303Z" fill="white"/>
<defs>
<radialGradient id="paint0_radial_443_3084" cx="0" cy="0" r="1" gradientUnits="userSpaceOnUse" gradientTransform="translate(4.02 23.9993) scale(26.4 26.3993)">
<stop stop-color="#0099FF"/>
<stop offset="0.6" stop-color="#A033FF"/>
<stop offset="0.9" stop-color="#FF5280"/>
<stop offset="1" stop-color="#FF7061"/>
</radialGradient>
</defs>
</svg>
