<svg width="24" height="24" viewBox="0 0 24 24" fill="none" xmlns="http://www.w3.org/2000/svg">
<rect width="24" height="24" rx="6" fill="#FF0000"/>
<path d="M11.413 6.04018C9.46508 6.26278 7.524 7.8761 7.44388 10.1807C7.39352 11.5878 7.7838 12.6434 9.09197 12.9398C9.65964 11.9147 8.90885 11.6885 8.79211 10.9469C8.31256 7.90773 12.2165 5.83514 14.2594 7.95694C15.6729 9.42615 14.7424 13.9462 12.4625 13.4764C10.2788 13.0277 13.5315 9.42967 11.7884 8.72318C10.3715 8.14909 9.61844 10.4794 10.2903 11.637C9.89656 13.6276 9.04848 15.5033 9.39183 18C10.5054 17.1729 10.8808 15.5889 11.1887 13.9369C11.7484 14.2848 12.0471 14.6469 12.7613 14.7031C15.3948 14.9117 16.8654 12.0119 16.5061 9.33711C16.1868 6.96575 13.8749 5.75899 11.413 6.04018Z" fill="white"/>
</svg>
