<svg width="24" height="24" viewBox="0 0 24 24" fill="none" xmlns="http://www.w3.org/2000/svg">
<rect width="24" height="24" rx="6" fill="#B92B27"/>
<path d="M12.4462 15.3627C12.0282 14.5439 11.5378 13.7168 10.5811 13.7168C10.3983 13.7168 10.2156 13.7469 10.048 13.8231L9.72303 13.1758C10.1191 12.8377 10.759 12.5696 11.5816 12.5696C12.8612 12.5696 13.5179 13.183 14.0393 13.966C14.3488 13.2975 14.4959 12.3947 14.4959 11.2757C14.4959 8.48126 13.6177 7.04641 11.5665 7.04641C9.54518 7.04641 8.67182 8.48126 8.67182 11.2757C8.67182 14.0554 9.54518 15.4755 11.5665 15.4755C11.8878 15.4755 12.1788 15.4403 12.4462 15.3627ZM12.9473 16.3379C12.497 16.4584 12.0328 16.5201 11.5665 16.5214C8.87496 16.5214 6.23962 14.384 6.23962 11.2757C6.23962 8.1379 8.87496 6.00005 11.5665 6.00005C14.3032 6.00005 16.9133 8.1225 16.9133 11.2757C16.9133 13.0296 16.0909 14.4549 14.8956 15.3761C15.2818 15.952 15.6794 16.3344 16.233 16.3344C16.8372 16.3344 17.0809 15.8698 17.1216 15.5054H17.9085C17.9544 15.9906 17.7105 18.0072 15.5116 18.0072C14.1796 18.0072 13.4754 17.239 12.9473 16.3379Z" fill="white"/>
</svg>
