<svg width="24" height="24" viewBox="0 0 24 24" fill="none" xmlns="http://www.w3.org/2000/svg">
<rect width="24" height="24" rx="6" fill="#FF4500"/>
<path d="M17.9999 12.0838C18.0017 12.2061 17.9863 12.3282 17.9539 12.4463C17.9215 12.5644 17.8724 12.6776 17.808 12.782C17.7438 12.8865 17.665 12.9816 17.574 13.0644C17.483 13.1472 17.3807 13.2169 17.2702 13.2713C17.2726 13.3039 17.2747 13.3368 17.2758 13.3696C17.2785 13.435 17.2785 13.5006 17.2758 13.566C17.2747 13.5988 17.2726 13.6316 17.2702 13.6642C17.2702 15.6643 14.9189 17.2894 12.0182 17.2894C9.11744 17.2894 6.76621 15.6643 6.76621 13.6642C6.76373 13.6316 6.76171 13.5988 6.76058 13.566C6.75787 13.5006 6.75787 13.435 6.76058 13.3696C6.76171 13.3368 6.76373 13.3039 6.76621 13.2713C6.59297 13.1924 6.4391 13.0771 6.31524 12.9334C6.19139 12.7897 6.10052 12.6211 6.04891 12.4392C5.99739 12.2572 5.98641 12.0662 6.01674 11.8796C6.04708 11.6929 6.11799 11.5151 6.22457 11.3583C6.33106 11.2016 6.47068 11.0697 6.63375 10.9718C6.79681 10.8739 6.97942 10.8123 7.16889 10.7913C7.35839 10.7703 7.55024 10.7903 7.73115 10.8501C7.91206 10.9098 8.0777 11.0078 8.21659 11.1373C8.47442 10.9641 8.74455 10.8096 9.02488 10.675C9.30527 10.5406 9.59512 10.4264 9.89217 10.3335C10.1892 10.2406 10.4928 10.1694 10.8002 10.1201C11.1077 10.0708 11.4184 10.0437 11.7299 10.0391L12.3965 6.94071C12.404 6.90477 12.4186 6.87084 12.4396 6.84048C12.4603 6.81034 12.4871 6.78445 12.5179 6.76458C12.549 6.74471 12.5837 6.7311 12.6202 6.7244C12.6564 6.71793 12.6938 6.7186 12.7299 6.72641L14.937 7.16393C15.1597 6.78467 15.6272 6.62216 16.0401 6.78021C16.4529 6.93825 16.6889 7.37019 16.5966 7.79923C16.5044 8.22826 16.1112 8.52738 15.6693 8.50484C15.2273 8.48229 14.8671 8.14478 14.8198 7.7086L12.892 7.30679L12.3065 10.0926C12.6141 10.0991 12.9211 10.1277 13.2247 10.1779C13.8326 10.2783 14.4227 10.4653 14.9768 10.7328C15.2536 10.8663 15.5202 11.0194 15.7747 11.1909C15.9578 11.0167 16.1877 10.8988 16.4369 10.8514C16.686 10.8038 16.9438 10.8286 17.179 10.923C17.4142 11.0174 17.6168 11.1771 17.7625 11.3831C17.9082 11.5891 17.9906 11.8324 17.9999 12.0838ZM9.05979 13.3184C9.10528 13.4267 9.17149 13.5252 9.25527 13.608C9.33882 13.691 9.43814 13.7566 9.54737 13.8017C9.6567 13.8465 9.77386 13.8696 9.89217 13.8696C10.2566 13.8696 10.5849 13.6519 10.7246 13.3184C10.864 12.9847 10.7867 12.6008 10.5291 12.3454C10.2714 12.09 9.88407 12.0135 9.54737 12.1517C9.2109 12.2901 8.99132 12.6155 8.99132 12.9767C8.99132 13.0939 9.01452 13.21 9.05979 13.3184ZM14.2194 15.4619C14.2656 15.4172 14.2919 15.3563 14.2928 15.2924C14.2937 15.2284 14.2687 15.1667 14.2237 15.121C14.1787 15.0752 14.1172 15.0491 14.0528 15.0482C13.9881 15.0473 13.926 15.0721 13.8739 15.1107C13.7385 15.207 13.595 15.2918 13.4451 15.3641C13.2952 15.4364 13.1394 15.4961 12.9794 15.5424C12.8195 15.5886 12.6558 15.6215 12.4902 15.6404C12.3245 15.6594 12.1576 15.6643 11.9912 15.6554C11.825 15.6628 11.6583 15.6561 11.4932 15.6355C11.3281 15.6152 11.165 15.5808 11.0059 15.5328C10.8464 15.4851 10.6917 15.4239 10.5428 15.3502C10.394 15.2766 10.2516 15.1904 10.1174 15.0929C10.0708 15.0549 10.0115 15.0355 9.95118 15.0384C9.89082 15.0413 9.83384 15.0665 9.79105 15.1087C9.74849 15.1511 9.72304 15.2076 9.72011 15.2674C9.71718 15.3272 9.73678 15.386 9.77506 15.4322C9.93339 15.5505 10.1016 15.6549 10.278 15.7447C10.4543 15.8344 10.6383 15.9087 10.8275 15.9672C11.0167 16.0257 11.2106 16.0679 11.4072 16.0936C11.6038 16.119 11.8022 16.1277 12.0002 16.1197C12.1981 16.1277 12.3965 16.119 12.5932 16.0936C12.9869 16.0422 13.3689 15.9242 13.7224 15.7447C13.8987 15.6549 14.067 15.5505 14.2253 15.4322L14.2194 15.4619ZM14.0541 13.941C14.1762 13.9424 14.2973 13.9189 14.4102 13.8725C14.523 13.8258 14.625 13.7571 14.7102 13.6703C14.7953 13.5834 14.8615 13.4803 14.9052 13.3671C14.9489 13.2541 14.9689 13.1334 14.964 13.0124C14.964 12.6512 14.7444 12.3258 14.4079 12.1874C14.0712 12.0492 13.6839 12.1258 13.4262 12.3811C13.1686 12.6365 13.0913 13.0204 13.2307 13.3542C13.3704 13.6877 13.6987 13.9053 14.0631 13.9053L14.0541 13.941Z" fill="white"/>
</svg>
