<svg width="24" height="24" viewBox="0 0 24 24" fill="none" xmlns="http://www.w3.org/2000/svg">
<rect width="24" height="24" rx="6" fill="#00AEF3"/>
<path fill-rule="evenodd" clip-rule="evenodd" d="M18.2995 14.8145C18.2995 14.2582 18.1673 13.733 17.9321 13.2664C18.0245 12.8501 18.0726 12.419 18.0726 11.9761C18.0726 8.65766 15.3443 5.96665 11.9774 5.96665C11.6227 5.96665 11.2748 5.99702 10.9352 6.0548C10.3905 5.71629 9.74577 5.52 9.05525 5.52C7.10241 5.52 5.52 7.07995 5.52 9.0058C5.52 9.64874 5.69732 10.2502 6.00539 10.7687C5.92499 11.1583 5.88216 11.5627 5.88216 11.9761C5.88216 15.2959 8.61119 17.9862 11.9774 17.9862C12.3591 17.9862 12.7318 17.9514 13.0939 17.8855C13.5921 18.1492 14.1601 18.2995 14.765 18.2995C16.7171 18.2995 18.2995 16.7388 18.2995 14.8145ZM15.5307 13.5079C15.5307 14.0026 15.3864 14.4537 15.1039 14.8485C14.8221 15.2426 14.4059 15.5537 13.8649 15.7744C13.3306 15.9937 12.6904 16.1055 11.9609 16.1055C11.0855 16.1055 10.3514 15.9537 9.77808 15.6537C9.36858 15.4359 9.03121 15.1411 8.77499 14.7752C8.51576 14.4078 8.38502 14.0426 8.38502 13.6893C8.38502 13.4701 8.47068 13.279 8.63899 13.1227C8.80579 12.9671 9.01994 12.8894 9.27541 12.8894C9.48429 12.8894 9.66538 12.9508 9.8119 13.0731C9.9524 13.1908 10.0726 13.3649 10.1696 13.5878C10.2778 13.8323 10.395 14.0382 10.5189 14.1989C10.6392 14.356 10.8112 14.4871 11.0306 14.59C11.2515 14.6923 11.5498 14.7456 11.9158 14.7456C12.4199 14.7456 12.8332 14.6389 13.1435 14.43C13.4478 14.2263 13.5951 13.9804 13.5951 13.6797C13.5951 13.4434 13.5177 13.2568 13.3599 13.1101C13.1931 12.9575 12.9745 12.839 12.7092 12.756C12.432 12.6716 12.0563 12.579 11.5912 12.4827C10.9578 12.3494 10.4205 12.1916 9.99373 12.0116C9.55643 11.8287 9.20403 11.5746 8.9463 11.2568C8.68482 10.9331 8.55183 10.528 8.55183 10.0517C8.55183 9.59837 8.69083 9.18876 8.96584 8.83618C9.23784 8.48582 9.63607 8.21176 10.1493 8.02584C10.6549 7.8414 11.2561 7.74807 11.9376 7.74807C12.4816 7.74807 12.9602 7.81029 13.3599 7.93325C13.7619 8.05621 14.1 8.22213 14.366 8.4273C14.6343 8.6347 14.8341 8.85469 14.9589 9.08432C15.0851 9.31616 15.1497 9.54652 15.1497 9.76948C15.1497 9.98428 15.0656 10.1798 14.8995 10.3495C14.7327 10.5213 14.5216 10.608 14.2736 10.608C14.0482 10.608 13.8709 10.5531 13.7491 10.4465C13.6349 10.3465 13.5162 10.1909 13.3847 9.96873C13.2329 9.68429 13.0489 9.45986 12.8377 9.30134C12.6326 9.14728 12.2907 9.07024 11.8196 9.07024C11.3838 9.07024 11.0276 9.15617 10.7639 9.32727C10.5099 9.49097 10.386 9.67985 10.386 9.90354C10.386 10.0398 10.4258 10.1546 10.5084 10.2524C10.5941 10.3576 10.7166 10.448 10.8713 10.525C11.0314 10.6043 11.1967 10.668 11.362 10.7124C11.5311 10.7591 11.8151 10.828 12.2051 10.9168C12.6987 11.0205 13.1518 11.1383 13.5523 11.265C13.9588 11.3924 14.3089 11.5494 14.596 11.7338C14.8875 11.9212 15.1182 12.1612 15.2827 12.4486C15.4473 12.7383 15.5307 13.0938 15.5307 13.5079Z" fill="white"/>
</svg>
