<svg width="24" height="24" viewBox="0 0 24 24" fill="none" xmlns="http://www.w3.org/2000/svg">
<rect width="24" height="24" rx="6" fill="#34AADF"/>
<path fill-rule="evenodd" clip-rule="evenodd" d="M18.63 12.075C18.63 15.6952 15.6952 18.63 12.075 18.63C8.4548 18.63 5.52002 15.6952 5.52002 12.075C5.52002 8.45478 8.4548 5.52 12.075 5.52C15.6952 5.52 18.63 8.45478 18.63 12.075ZM12.7032 10.0636C11.5771 10.55 8.33004 11.9314 8.33004 11.9314C7.56052 12.2427 8.01095 12.5346 8.01095 12.5346C8.01095 12.5346 8.66786 12.7681 9.23094 12.9432C9.794 13.1183 10.0943 12.9237 10.0943 12.9237C10.0943 12.9237 11.4081 12.0287 12.7407 11.0753C13.6791 10.4138 13.4539 10.9586 13.2287 11.1921C12.7407 11.698 11.9337 12.4957 11.258 13.1377C10.9577 13.4101 11.1078 13.6436 11.2392 13.7603C11.6213 14.0955 12.5213 14.7051 12.9299 14.9818C13.0431 15.0585 13.1186 15.1096 13.1349 15.1223C13.2287 15.2001 13.7542 15.5503 14.0733 15.4725C14.3924 15.3947 14.4299 14.9472 14.4299 14.9472C14.4299 14.9472 14.6739 13.3518 14.8991 11.8925C14.9409 11.606 14.9826 11.3255 15.0215 11.064C15.1226 10.3841 15.2046 9.8323 15.2182 9.63558C15.2745 8.97408 14.5988 9.24645 14.5988 9.24645C14.5988 9.24645 13.1349 9.86907 12.7032 10.0636Z" fill="white"/>
</svg>
