<svg width="24" height="24" viewBox="0 0 24 24" fill="none" xmlns="http://www.w3.org/2000/svg">
<path fill-rule="evenodd" clip-rule="evenodd" d="M10.7702 2.27641C11.5444 1.88931 12.4557 1.88931 13.2299 2.27641L20.5466 5.93477C21.8364 6.57969 21.8364 8.42035 20.5466 9.06526L13.2299 12.7236C12.4557 13.1107 11.5444 13.1107 10.7702 12.7236L3.45346 9.06526C2.16362 8.42034 2.16363 6.57968 3.45346 5.93477L10.7702 2.27641ZM2.31458 17.1953C2.48281 16.8168 2.92603 16.6464 3.30455 16.8146L11.4923 20.4536C11.8155 20.5972 12.1844 20.5972 12.5076 20.4536L20.6953 16.8146C21.0739 16.6464 21.5171 16.8168 21.6853 17.1953C21.8535 17.5739 21.6831 18.0171 21.3045 18.1853L13.1168 21.8243C12.4058 22.1403 11.5941 22.1403 10.8831 21.8243L2.69534 18.1853C2.31683 18.0171 2.14636 17.5739 2.31458 17.1953ZM3.30455 12.3146C2.92603 12.1464 2.48281 12.3168 2.31458 12.6953C2.14636 13.0739 2.31683 13.5171 2.69534 13.6853L10.8831 17.3243C11.5941 17.6403 12.4058 17.6403 13.1168 17.3243L21.3045 13.6853C21.6831 13.5171 21.8535 13.0739 21.6853 12.6953C21.5171 12.3168 21.0739 12.1464 20.6953 12.3146L12.5076 15.9536C12.1844 16.0972 11.8155 16.0972 11.4923 15.9536L3.30455 12.3146Z" fill="#28303F"/>
</svg>
